<svg width="437" height="512" viewBox="0 0 437 512" fill="none" xmlns="http://www.w3.org/2000/svg">
<path d="M27.3739 512H408.829C435.07 512 446.219 484.451 425.254 471.433C392.39 451.041 362.428 427.786 335.847 402.146C309.266 376.506 286.08 348.479 266.75 318.518C256.376 302.46 237.239 294.418 218.1 294.418C198.961 294.418 179.823 302.46 169.45 318.518C150.12 348.479 126.934 376.506 100.353 402.146C73.7722 427.786 43.8111 451.041 10.9458 471.433C3.3802 476.137 0 482.721 0 489.236C0.00301176 500.754 10.6084 512 27.3739 512Z" fill="url(#paint0_linear_74_192)"/>
<path d="M100.356 402.146C73.7751 427.786 43.8141 451.041 10.9487 471.434C3.38313 476.136 0.00292969 482.721 0.00292969 489.236C0.00292969 500.754 10.6084 512 27.3749 512H408.829C435.068 512 446.219 484.452 425.254 471.434C392.39 451.041 362.428 427.786 335.847 402.146C328.273 394.841 320.985 387.334 313.973 379.652H122.229C115.217 387.335 107.93 394.841 100.356 402.146Z" fill="url(#paint1_linear_74_192)"/>
<path d="M425.255 471.433C392.391 451.041 362.429 427.786 335.848 402.146C309.267 376.506 286.08 348.479 266.751 318.518C256.377 302.46 237.24 294.418 218.101 294.418C198.963 294.418 179.824 302.46 169.451 318.518C159.128 334.519 147.695 349.962 135.242 364.79L282.452 512H408.829C435.069 512 446.22 484.451 425.255 471.433Z" fill="url(#paint2_linear_74_192)"/>
<path d="M27.3739 364.791H408.829C435.07 364.791 446.219 337.242 425.254 324.224C392.39 303.832 362.428 280.577 335.847 254.937C309.266 229.297 286.08 201.27 266.75 171.309C256.376 155.251 237.239 147.209 218.1 147.209C198.961 147.209 179.823 155.251 169.45 171.309C150.12 201.27 126.934 229.297 100.353 254.937C73.7722 280.577 43.8111 303.832 10.9458 324.224C3.3802 328.927 0 335.512 0 342.027C0.00301176 353.545 10.6084 364.791 27.3739 364.791Z" fill="url(#paint3_linear_74_192)"/>
<path d="M100.356 254.937C73.7751 280.577 43.8141 303.832 10.9487 324.225C3.38313 328.927 0.00292969 335.512 0.00292969 342.027C0.00292969 353.545 10.6084 364.791 27.3749 364.791H408.829C435.068 364.791 446.219 337.243 425.254 324.225C392.39 303.832 362.428 280.577 335.847 254.937C328.273 247.632 320.985 240.125 313.973 232.443H122.229C115.217 240.125 107.93 247.632 100.356 254.937Z" fill="url(#paint4_linear_74_192)"/>
<path d="M425.255 324.224C392.391 303.832 362.429 280.577 335.848 254.937C309.267 229.297 286.08 201.27 266.751 171.309C256.377 155.251 237.24 147.209 218.101 147.209C198.963 147.209 179.824 155.251 169.451 171.309C159.128 187.31 147.695 202.753 135.242 217.581L282.451 364.79H408.829C435.069 364.79 446.22 337.241 425.255 324.224Z" fill="url(#paint5_linear_74_192)"/>
<path d="M27.3739 217.581H408.829C435.069 217.581 446.219 190.032 425.254 177.014C392.39 156.622 362.428 133.367 335.847 107.727C309.266 82.0867 286.079 54.0602 266.75 24.0991C256.378 8.04241 237.24 0 218.102 0C198.964 0 179.825 8.04242 169.452 24.1001C150.122 54.0612 126.936 82.0877 100.355 107.728C73.7741 133.368 43.8131 156.623 10.9477 177.015C3.38216 181.718 0.00195312 188.303 0.00195312 194.818C0.00295705 206.335 10.6084 217.581 27.3739 217.581Z" fill="url(#paint6_linear_74_192)"/>
<path d="M100.356 107.728C73.7751 133.368 43.8141 156.623 10.9487 177.016C3.38313 181.718 0.00292969 188.303 0.00292969 194.818C0.00292969 206.336 10.6084 217.582 27.3749 217.582H408.829C435.068 217.582 446.219 190.034 425.254 177.016C392.39 156.623 362.428 133.368 335.847 107.728C328.273 100.423 320.985 92.9164 313.973 85.2344H122.229C115.217 92.9164 107.93 100.422 100.356 107.728Z" fill="url(#paint7_linear_74_192)"/>
<path d="M300.96 217.581C288.508 202.753 277.074 187.31 266.752 171.309C256.378 155.251 237.241 147.209 218.102 147.209C198.964 147.209 179.825 155.251 169.452 171.309C159.129 187.31 147.696 202.753 135.243 217.581H300.96Z" fill="url(#paint8_linear_74_192)"/>
<path d="M300.96 364.791C288.508 349.963 277.074 334.52 266.752 318.519C256.378 302.461 237.241 294.419 218.102 294.419C198.964 294.419 179.825 302.461 169.452 318.519C159.129 334.52 147.696 349.963 135.243 364.791H300.96Z" fill="url(#paint9_linear_74_192)"/>
<g style="mix-blend-mode:color">
<path d="M27.3739 512H408.829C435.07 512 446.219 484.451 425.254 471.433C392.39 451.041 362.428 427.786 335.847 402.146C309.266 376.506 286.08 348.479 266.75 318.518C256.376 302.46 237.239 294.418 218.1 294.418C198.961 294.418 179.823 302.46 169.45 318.518C150.12 348.479 126.934 376.506 100.353 402.146C73.7722 427.786 43.8111 451.041 10.9458 471.433C3.3802 476.137 0 482.721 0 489.236C0.00301176 500.754 10.6084 512 27.3739 512Z" fill="#26DE81"/>
<path d="M100.356 402.146C73.7751 427.786 43.8141 451.041 10.9487 471.434C3.38313 476.136 0.00292969 482.721 0.00292969 489.236C0.00292969 500.754 10.6084 512 27.3749 512H408.829C435.068 512 446.219 484.452 425.254 471.434C392.39 451.041 362.428 427.786 335.847 402.146C328.273 394.841 320.985 387.334 313.973 379.652H122.229C115.217 387.335 107.93 394.841 100.356 402.146Z" fill="#26DE81"/>
<path d="M425.255 471.433C392.391 451.041 362.429 427.786 335.848 402.146C309.267 376.506 286.08 348.479 266.751 318.518C256.377 302.46 237.24 294.418 218.101 294.418C198.963 294.418 179.824 302.46 169.451 318.518C159.128 334.519 147.695 349.962 135.242 364.79L282.452 512H408.829C435.069 512 446.22 484.451 425.255 471.433Z" fill="#26DE81"/>
<path d="M27.3739 364.791H408.829C435.07 364.791 446.219 337.242 425.254 324.224C392.39 303.832 362.428 280.577 335.847 254.937C309.266 229.297 286.08 201.27 266.75 171.309C256.376 155.251 237.239 147.209 218.1 147.209C198.961 147.209 179.823 155.251 169.45 171.309C150.12 201.27 126.934 229.297 100.353 254.937C73.7722 280.577 43.8111 303.832 10.9458 324.224C3.3802 328.927 0 335.512 0 342.027C0.00301176 353.545 10.6084 364.791 27.3739 364.791Z" fill="#26DE81"/>
<path d="M100.356 254.937C73.7751 280.577 43.8141 303.832 10.9487 324.225C3.38313 328.927 0.00292969 335.512 0.00292969 342.027C0.00292969 353.545 10.6084 364.791 27.3749 364.791H408.829C435.068 364.791 446.219 337.243 425.254 324.225C392.39 303.832 362.428 280.577 335.847 254.937C328.273 247.632 320.985 240.125 313.973 232.443H122.229C115.217 240.125 107.93 247.632 100.356 254.937Z" fill="#26DE81"/>
<path d="M425.255 324.224C392.391 303.832 362.429 280.577 335.848 254.937C309.267 229.297 286.08 201.27 266.751 171.309C256.377 155.251 237.24 147.209 218.101 147.209C198.963 147.209 179.824 155.251 169.451 171.309C159.128 187.31 147.695 202.753 135.242 217.581L282.451 364.79H408.829C435.069 364.79 446.22 337.241 425.255 324.224Z" fill="#26DE81"/>
<path d="M27.3739 217.581H408.829C435.069 217.581 446.219 190.032 425.254 177.014C392.39 156.622 362.428 133.367 335.847 107.727C309.266 82.0867 286.079 54.0602 266.75 24.0991C256.378 8.04241 237.24 0 218.102 0C198.964 0 179.825 8.04242 169.452 24.1001C150.122 54.0612 126.936 82.0877 100.355 107.728C73.7741 133.368 43.8131 156.623 10.9477 177.015C3.38216 181.718 0.00195312 188.303 0.00195312 194.818C0.00295705 206.335 10.6084 217.581 27.3739 217.581Z" fill="#26DE81"/>
<path d="M100.356 107.728C73.7751 133.368 43.8141 156.623 10.9487 177.016C3.38313 181.718 0.00292969 188.303 0.00292969 194.818C0.00292969 206.336 10.6084 217.582 27.3749 217.582H408.829C435.068 217.582 446.219 190.034 425.254 177.016C392.39 156.623 362.428 133.368 335.847 107.728C328.273 100.423 320.985 92.9164 313.973 85.2344H122.229C115.217 92.9164 107.93 100.422 100.356 107.728Z" fill="#26DE81"/>
<path d="M300.96 217.581C288.508 202.753 277.074 187.31 266.752 171.309C256.378 155.251 237.241 147.209 218.102 147.209C198.964 147.209 179.825 155.251 169.452 171.309C159.129 187.31 147.696 202.753 135.243 217.581H300.96Z" fill="#26DE81"/>
<path d="M300.96 364.791C288.508 349.963 277.074 334.52 266.752 318.519C256.378 302.461 237.241 294.419 218.102 294.419C198.964 294.419 179.825 302.461 169.452 318.519C159.129 334.52 147.696 349.963 135.243 364.791H300.96Z" fill="#26DE81"/>
</g>
<defs>
<linearGradient id="paint0_linear_74_192" x1="125.897" y1="299.403" x2="262.884" y2="581.556" gradientUnits="userSpaceOnUse">
<stop stop-color="#FEAEE1"/>
<stop offset="0.1363" stop-color="#FDA9DD"/>
<stop offset="0.2904" stop-color="#FB9BD2"/>
<stop offset="0.4533" stop-color="#F785C0"/>
<stop offset="0.6222" stop-color="#F265A6"/>
<stop offset="0.7958" stop-color="#EC3C85"/>
<stop offset="0.971" stop-color="#E40B5D"/>
<stop offset="1" stop-color="#E30256"/>
</linearGradient>
<linearGradient id="paint1_linear_74_192" x1="218.104" y1="466.305" x2="218.104" y2="528.209" gradientUnits="userSpaceOnUse">
<stop stop-color="#5B3374" stop-opacity="0"/>
<stop offset="1" stop-color="#5B3374"/>
</linearGradient>
<linearGradient id="paint2_linear_74_192" x1="285.724" y1="450.393" x2="285.724" y2="296.568" gradientUnits="userSpaceOnUse">
<stop stop-color="#5B3374" stop-opacity="0"/>
<stop offset="1" stop-color="#5B3374"/>
</linearGradient>
<linearGradient id="paint3_linear_74_192" x1="125.897" y1="152.194" x2="262.884" y2="434.346" gradientUnits="userSpaceOnUse">
<stop stop-color="#FD3581"/>
<stop offset="1" stop-color="#972437"/>
</linearGradient>
<linearGradient id="paint4_linear_74_192" x1="218.104" y1="319.096" x2="218.104" y2="380.999" gradientUnits="userSpaceOnUse">
<stop stop-color="#972437" stop-opacity="0"/>
<stop offset="1" stop-color="#42210B"/>
</linearGradient>
<linearGradient id="paint5_linear_74_192" x1="285.724" y1="303.184" x2="285.724" y2="149.358" gradientUnits="userSpaceOnUse">
<stop stop-color="#972437" stop-opacity="0"/>
<stop offset="1" stop-color="#42210B"/>
</linearGradient>
<linearGradient id="paint6_linear_74_192" x1="125.897" y1="4.98447" x2="262.884" y2="287.137" gradientUnits="userSpaceOnUse">
<stop stop-color="#FEAEE1"/>
<stop offset="0.1363" stop-color="#FDA9DD"/>
<stop offset="0.2904" stop-color="#FB9BD2"/>
<stop offset="0.4533" stop-color="#F785C0"/>
<stop offset="0.6222" stop-color="#F265A6"/>
<stop offset="0.7958" stop-color="#EC3C85"/>
<stop offset="0.971" stop-color="#E40B5D"/>
<stop offset="1" stop-color="#E30256"/>
</linearGradient>
<linearGradient id="paint7_linear_74_192" x1="218.104" y1="171.886" x2="218.104" y2="233.79" gradientUnits="userSpaceOnUse">
<stop stop-color="#5B3374" stop-opacity="0"/>
<stop offset="1" stop-color="#5B3374"/>
</linearGradient>
<linearGradient id="paint8_linear_74_192" x1="183.096" y1="123.272" x2="239.985" y2="276.537" gradientUnits="userSpaceOnUse">
<stop stop-color="#5B3374" stop-opacity="0"/>
<stop offset="1" stop-color="#5B3374"/>
</linearGradient>
<linearGradient id="paint9_linear_74_192" x1="151.033" y1="290.945" x2="246.392" y2="386.305" gradientUnits="userSpaceOnUse">
<stop stop-color="#972437" stop-opacity="0"/>
<stop offset="1" stop-color="#42210B"/>
</linearGradient>
</defs>
</svg>
