<svg width="451" height="512" viewBox="0 0 451 512" fill="none" xmlns="http://www.w3.org/2000/svg">
<path d="M362.563 139.386C401.054 139.386 432.257 108.184 432.257 69.6932C432.257 31.2027 401.054 0 362.563 0C324.073 0 292.87 31.2027 292.87 69.6932C292.87 108.184 324.073 139.386 362.563 139.386Z" fill="url(#paint0_linear_74_235)"/>
<path d="M88.4144 512C126.905 512 158.108 480.797 158.108 442.307C158.108 403.816 126.905 372.613 88.4144 372.613C49.9239 372.613 18.7212 403.816 18.7212 442.307C18.7212 480.797 49.9239 512 88.4144 512Z" fill="url(#paint1_linear_74_235)"/>
<path d="M419.3 512H305.827C288.331 512 274.149 497.818 274.149 480.323V199.264C274.149 181.768 288.331 167.586 305.827 167.586H419.3C436.795 167.586 450.978 181.768 450.978 199.264V480.323C450.978 497.818 436.795 512 419.3 512Z" fill="url(#paint2_linear_74_235)"/>
<path d="M340.896 167.587H419.301C436.796 167.587 450.979 181.769 450.979 199.265V480.324C450.979 497.819 436.796 512.001 419.301 512.001H340.896V167.587Z" fill="url(#paint3_linear_74_235)"/>
<path d="M274.15 325.349V480.323C274.15 497.818 288.332 512.001 305.828 512.001H419.301C436.796 512.001 450.979 497.818 450.979 480.323V325.349H274.15Z" fill="url(#paint4_linear_74_235)"/>
<path d="M274.15 315.631H450.978V430.557H274.15V315.631Z" fill="url(#paint5_linear_74_235)"/>
<path d="M450.978 312.737V199.264C450.978 181.768 436.795 167.586 419.3 167.586H31.6777C14.1824 167.586 0 181.768 0 199.264V312.737C0 330.232 14.1824 344.415 31.6777 344.415H419.301C436.795 344.414 450.978 330.231 450.978 312.737Z" fill="url(#paint6_linear_74_235)"/>
<path d="M0 199.264V312.737C0 330.232 14.1824 344.415 31.6777 344.415H353.655L176.828 167.587H31.6777C14.1824 167.587 0 181.769 0 199.264Z" fill="url(#paint7_linear_74_235)"/>
<path d="M0 234.333V312.737C0 330.233 14.1824 344.415 31.6777 344.415H419.301C436.796 344.415 450.979 330.233 450.979 312.737V234.333H0Z" fill="url(#paint8_linear_74_235)"/>
<path d="M264.326 167.587H419.3C436.795 167.587 450.978 181.769 450.978 199.265V312.738C450.978 330.233 436.795 344.416 419.3 344.416H264.326V167.587Z" fill="url(#paint9_linear_74_235)"/>
<path d="M145.15 344.413H31.6777C14.1824 344.413 0 330.231 0 312.736V31.6777C0 14.1824 14.1824 0 31.6777 0H145.151C162.646 0 176.829 14.1824 176.829 31.6777V312.737C176.828 330.231 162.645 344.413 145.15 344.413Z" fill="url(#paint10_linear_74_235)"/>
<path d="M66.7466 0H145.151C162.646 0 176.829 14.1824 176.829 31.6777V312.737C176.829 330.232 162.646 344.414 145.151 344.414H66.7466V0Z" fill="url(#paint11_linear_74_235)"/>
<path d="M0 157.763V312.737C0 330.232 14.1824 344.415 31.6777 344.415H145.151C162.646 344.415 176.829 330.232 176.829 312.737V157.763H0Z" fill="url(#paint12_linear_74_235)"/>
<path d="M419.3 167.587H305.827C288.331 167.587 274.149 181.769 274.149 199.265V344.415H419.299C436.794 344.415 450.977 330.232 450.977 312.737V199.264C450.978 181.769 436.795 167.587 419.3 167.587Z" fill="url(#paint13_linear_74_235)"/>
<path d="M176.828 312.737V167.587H31.6777C14.1834 167.587 0.00200784 181.768 0 199.262V312.74C0.00100392 330.233 14.1834 344.415 31.6777 344.415H145.151C162.645 344.414 176.828 330.231 176.828 312.737Z" fill="url(#paint14_linear_74_235)"/>
<g style="mix-blend-mode:color">
<path d="M362.563 139.386C401.054 139.386 432.257 108.184 432.257 69.6932C432.257 31.2027 401.054 0 362.563 0C324.073 0 292.87 31.2027 292.87 69.6932C292.87 108.184 324.073 139.386 362.563 139.386Z" fill="#26DE81"/>
<path d="M88.4144 512C126.905 512 158.108 480.797 158.108 442.307C158.108 403.816 126.905 372.613 88.4144 372.613C49.9239 372.613 18.7212 403.816 18.7212 442.307C18.7212 480.797 49.9239 512 88.4144 512Z" fill="#26DE81"/>
<path d="M419.3 512H305.827C288.331 512 274.149 497.818 274.149 480.323V199.264C274.149 181.768 288.331 167.586 305.827 167.586H419.3C436.795 167.586 450.978 181.768 450.978 199.264V480.323C450.978 497.818 436.795 512 419.3 512Z" fill="#26DE81"/>
<path d="M340.896 167.587H419.301C436.796 167.587 450.979 181.769 450.979 199.265V480.324C450.979 497.819 436.796 512.001 419.301 512.001H340.896V167.587Z" fill="#26DE81"/>
<path d="M274.15 325.349V480.323C274.15 497.818 288.332 512.001 305.828 512.001H419.301C436.796 512.001 450.979 497.818 450.979 480.323V325.349H274.15Z" fill="#26DE81"/>
<path d="M274.15 315.631H450.978V430.557H274.15V315.631Z" fill="#26DE81"/>
<path d="M450.978 312.737V199.264C450.978 181.768 436.795 167.586 419.3 167.586H31.6777C14.1824 167.586 0 181.768 0 199.264V312.737C0 330.232 14.1824 344.415 31.6777 344.415H419.301C436.795 344.414 450.978 330.231 450.978 312.737Z" fill="#26DE81"/>
<path d="M0 199.264V312.737C0 330.232 14.1824 344.415 31.6777 344.415H353.655L176.828 167.587H31.6777C14.1824 167.587 0 181.769 0 199.264Z" fill="#26DE81"/>
<path d="M0 234.333V312.737C0 330.233 14.1824 344.415 31.6777 344.415H419.301C436.796 344.415 450.979 330.233 450.979 312.737V234.333H0Z" fill="#26DE81"/>
<path d="M264.326 167.587H419.3C436.795 167.587 450.978 181.769 450.978 199.265V312.738C450.978 330.233 436.795 344.416 419.3 344.416H264.326V167.587Z" fill="#26DE81"/>
<path d="M145.15 344.413H31.6777C14.1824 344.413 0 330.231 0 312.736V31.6777C0 14.1824 14.1824 0 31.6777 0H145.151C162.646 0 176.829 14.1824 176.829 31.6777V312.737C176.828 330.231 162.645 344.413 145.15 344.413Z" fill="#26DE81"/>
<path d="M66.7466 0H145.151C162.646 0 176.829 14.1824 176.829 31.6777V312.737C176.829 330.232 162.646 344.414 145.151 344.414H66.7466V0Z" fill="#26DE81"/>
<path d="M0 157.763V312.737C0 330.232 14.1824 344.415 31.6777 344.415H145.151C162.646 344.415 176.829 330.232 176.829 312.737V157.763H0Z" fill="#26DE81"/>
<path d="M419.3 167.587H305.827C288.331 167.587 274.149 181.769 274.149 199.265V344.415H419.299C436.794 344.415 450.977 330.232 450.977 312.737V199.264C450.978 181.769 436.795 167.587 419.3 167.587Z" fill="#26DE81"/>
<path d="M176.828 312.737V167.587H31.6777C14.1834 167.587 0.00200784 181.768 0 199.262V312.74C0.00100392 330.233 14.1834 344.415 31.6777 344.415H145.151C162.645 344.414 176.828 330.231 176.828 312.737Z" fill="#26DE81"/>
</g>
<defs>
<linearGradient id="paint0_linear_74_235" x1="321.804" y1="28.934" x2="392.728" y2="99.8571" gradientUnits="userSpaceOnUse">
<stop stop-color="#FFE177"/>
<stop offset="0.1672" stop-color="#FFDD73"/>
<stop offset="0.3563" stop-color="#FFD065"/>
<stop offset="0.5559" stop-color="#FFBC4E"/>
<stop offset="0.7629" stop-color="#FEA02F"/>
<stop offset="0.9738" stop-color="#FE7C06"/>
<stop offset="1" stop-color="#FE7701"/>
</linearGradient>
<linearGradient id="paint1_linear_74_235" x1="47.6542" y1="401.547" x2="118.578" y2="472.471" gradientUnits="userSpaceOnUse">
<stop stop-color="#FFE177"/>
<stop offset="0.1672" stop-color="#FFDD73"/>
<stop offset="0.3563" stop-color="#FFD065"/>
<stop offset="0.5559" stop-color="#FFBC4E"/>
<stop offset="0.7629" stop-color="#FEA02F"/>
<stop offset="0.9738" stop-color="#FE7C06"/>
<stop offset="1" stop-color="#FE7701"/>
</linearGradient>
<linearGradient id="paint2_linear_74_235" x1="242.547" y1="219.777" x2="482.924" y2="460.155" gradientUnits="userSpaceOnUse">
<stop stop-color="#FEAEE1"/>
<stop offset="0.1363" stop-color="#FDA9DD"/>
<stop offset="0.2904" stop-color="#FB9BD2"/>
<stop offset="0.4533" stop-color="#F785C0"/>
<stop offset="0.6222" stop-color="#F265A6"/>
<stop offset="0.7958" stop-color="#EC3C85"/>
<stop offset="0.971" stop-color="#E40B5D"/>
<stop offset="1" stop-color="#E30256"/>
</linearGradient>
<linearGradient id="paint3_linear_74_235" x1="404.921" y1="339.794" x2="478.314" y2="339.794" gradientUnits="userSpaceOnUse">
<stop stop-color="#5B3374" stop-opacity="0"/>
<stop offset="1" stop-color="#5B3374"/>
</linearGradient>
<linearGradient id="paint4_linear_74_235" x1="362.563" y1="456.44" x2="362.563" y2="515.196" gradientUnits="userSpaceOnUse">
<stop stop-color="#5B3374" stop-opacity="0"/>
<stop offset="1" stop-color="#5B3374"/>
</linearGradient>
<linearGradient id="paint5_linear_74_235" x1="362.563" y1="397.243" x2="362.563" y2="336.165" gradientUnits="userSpaceOnUse">
<stop stop-color="#5B3374" stop-opacity="0"/>
<stop offset="1" stop-color="#5B3374"/>
</linearGradient>
<linearGradient id="paint6_linear_74_235" x1="79.0548" y1="109.566" x2="372.343" y2="402.854" gradientUnits="userSpaceOnUse">
<stop stop-color="#D9B1EE"/>
<stop offset="1" stop-color="#814AA0"/>
</linearGradient>
<linearGradient id="paint7_linear_74_235" x1="269.736" y1="256" x2="143.753" y2="256" gradientUnits="userSpaceOnUse">
<stop stop-color="#5B3374" stop-opacity="0"/>
<stop offset="1" stop-color="#5B3374"/>
</linearGradient>
<linearGradient id="paint8_linear_74_235" x1="225.489" y1="292.439" x2="225.489" y2="352.966" gradientUnits="userSpaceOnUse">
<stop stop-color="#5B3374" stop-opacity="0"/>
<stop offset="1" stop-color="#5B3374"/>
</linearGradient>
<linearGradient id="paint9_linear_74_235" x1="395.417" y1="256" x2="454.173" y2="256" gradientUnits="userSpaceOnUse">
<stop stop-color="#5B3374" stop-opacity="0"/>
<stop offset="1" stop-color="#5B3374"/>
</linearGradient>
<linearGradient id="paint10_linear_74_235" x1="-31.6024" y1="52.1909" x2="208.775" y2="292.568" gradientUnits="userSpaceOnUse">
<stop stop-color="#FEAEE1"/>
<stop offset="0.1363" stop-color="#FDA9DD"/>
<stop offset="0.2904" stop-color="#FB9BD2"/>
<stop offset="0.4533" stop-color="#F785C0"/>
<stop offset="0.6222" stop-color="#F265A6"/>
<stop offset="0.7958" stop-color="#EC3C85"/>
<stop offset="0.971" stop-color="#E40B5D"/>
<stop offset="1" stop-color="#E30256"/>
</linearGradient>
<linearGradient id="paint11_linear_74_235" x1="130.771" y1="172.207" x2="204.164" y2="172.207" gradientUnits="userSpaceOnUse">
<stop stop-color="#5B3374" stop-opacity="0"/>
<stop offset="1" stop-color="#5B3374"/>
</linearGradient>
<linearGradient id="paint12_linear_74_235" x1="88.4134" y1="288.854" x2="88.4134" y2="347.61" gradientUnits="userSpaceOnUse">
<stop stop-color="#5B3374" stop-opacity="0"/>
<stop offset="1" stop-color="#5B3374"/>
</linearGradient>
<linearGradient id="paint13_linear_74_235" x1="324.394" y1="146.73" x2="411.847" y2="427.827" gradientUnits="userSpaceOnUse">
<stop stop-color="#5B3374" stop-opacity="0"/>
<stop offset="1" stop-color="#5B3374"/>
</linearGradient>
<linearGradient id="paint14_linear_74_235" x1="-0.366436" y1="98.3274" x2="190.146" y2="412.203" gradientUnits="userSpaceOnUse">
<stop stop-color="#5B3374" stop-opacity="0"/>
<stop offset="1" stop-color="#5B3374"/>
</linearGradient>
</defs>
</svg>
