<svg width="328" height="512" viewBox="0 0 328 512" fill="none" xmlns="http://www.w3.org/2000/svg">
<path d="M252.38 512H184.857C177.719 512 170.671 510.805 164.005 508.506C169.045 506.759 173.864 504.39 178.351 501.429L228.738 468.179L259.448 488.448C270.079 495.465 265.11 512 252.38 512Z" fill="url(#paint0_linear_75_268)"/>
<path d="M252.38 512H245.092C232.573 512 220.325 508.326 209.884 501.429L194.123 491.028L228.738 468.179L259.448 488.448C270.08 495.465 265.11 512 252.38 512Z" fill="url(#paint1_linear_75_268)"/>
<path d="M178.354 501.429L274.773 437.792C301.584 420.097 301.584 380.759 274.773 363.064L140.554 274.479C127.293 265.727 127.293 246.271 140.554 237.519L274.773 148.934C301.584 131.239 301.584 91.901 274.773 74.2059L178.354 10.5713C167.906 3.67536 155.665 0 143.147 0H75.6198C62.8881 0 57.9227 16.5376 68.5482 23.551L177.768 95.6356C189.203 103.182 189.203 119.96 177.768 127.506L10.5025 237.902C-2.48325 246.473 -2.48325 265.527 10.5025 274.098L177.768 384.493C189.203 392.039 189.203 408.817 177.768 416.363L68.5482 488.448C57.9227 495.461 62.8881 511.999 75.6198 511.999H143.147C155.665 512 167.906 508.325 178.354 501.429Z" fill="url(#paint2_linear_75_268)"/>
<path d="M214.538 437.792C241.348 420.097 241.348 380.759 214.538 363.064L80.3182 274.479C67.0574 265.727 67.0574 246.271 80.3182 237.519L214.538 148.934C241.348 131.239 241.348 91.901 214.538 74.2059L118.119 10.5713C107.671 3.67536 95.4292 0 82.9113 0H75.6198C62.8881 0 57.9227 16.5376 68.5482 23.551L177.768 95.6356C189.203 103.182 189.203 119.96 177.768 127.506L10.5025 237.902C-2.48325 246.473 -2.48325 265.527 10.5025 274.098L177.768 384.493C189.203 392.039 189.203 408.817 177.768 416.363L68.5482 488.448C57.9227 495.461 62.8881 511.999 75.6198 511.999H82.9113C95.4292 511.999 107.671 508.324 118.119 501.428L214.538 437.792Z" fill="url(#paint3_linear_75_268)"/>
<path d="M274.773 74.207L216.353 35.6504L150.205 77.4436L177.768 95.6347C189.202 103.181 189.202 119.959 177.768 127.505L164.003 136.59L164.005 136.592H287.278C300.575 116.873 296.414 88.4918 274.773 74.207Z" fill="url(#paint4_linear_75_268)"/>
<path d="M53.2224 74.2099L99.2623 43.8212L149.649 10.5713C154.137 7.60973 158.965 5.23043 164.005 3.49365C170.671 1.19467 177.719 0 184.857 0H252.38C265.11 0 270.08 16.5346 259.448 23.552L228.738 43.8212L164.005 86.5481L150.231 95.6336C138.797 103.183 138.797 119.959 150.231 127.508L164.005 136.594L99.2623 179.32L53.2224 148.932C26.4177 131.243 26.4177 91.899 53.2224 74.2099Z" fill="url(#paint5_linear_75_268)"/>
<path d="M317.495 274.101L228.738 332.679L164.005 375.406L150.231 384.492C138.797 392.041 138.797 408.817 150.231 416.366L164.005 425.452L99.2623 468.179L53.2224 437.79C26.4177 420.101 26.4177 380.757 53.2224 363.068L99.2623 332.679L164.005 289.952L187.447 274.482C200.709 265.728 200.709 246.272 187.447 237.518L164.005 222.047L228.738 179.32L317.495 237.899C330.485 246.473 330.485 265.527 317.495 274.101Z" fill="url(#paint6_linear_75_268)"/>
<path d="M113.458 74.2099L129.38 63.6988L194.123 20.9719L209.884 10.5713C220.325 3.67435 232.573 0 245.092 0H252.38C265.11 0 270.08 16.5346 259.448 23.552L228.738 43.8212L164.005 86.5481L150.231 95.6336C138.797 103.183 138.797 119.959 150.231 127.508L164.005 136.594L129.38 159.443L113.458 148.932C86.6531 131.243 86.6531 91.899 113.458 74.2099Z" fill="url(#paint7_linear_75_268)"/>
<path d="M317.495 274.101L228.738 332.679L164.005 375.406L150.231 384.492C138.797 392.041 138.797 408.817 150.231 416.366L164.005 425.452L129.38 448.301L113.458 437.79C86.6528 420.101 86.6528 380.757 113.458 363.068L129.38 352.557L194.123 309.83L247.682 274.482C260.944 265.728 260.944 246.272 247.682 237.518L194.123 202.17L228.738 179.32L317.495 237.899C330.485 246.473 330.485 265.527 317.495 274.101Z" fill="url(#paint8_linear_75_268)"/>
<path d="M317.495 237.899L228.738 179.32L164.005 222.047L187.447 237.518C200.709 246.272 200.709 265.728 187.447 274.482L164.005 289.952L228.738 332.679L317.495 274.101C330.485 265.527 330.485 246.473 317.495 237.899Z" fill="url(#paint9_linear_75_268)"/>
<path d="M274.773 437.793C301.583 420.098 301.583 380.761 274.773 363.065L228.738 332.68L164.787 375.926L165.759 376.567L167.519 375.407V377.729L177.768 384.493C189.202 392.04 189.202 408.817 177.768 416.364L167.519 423.128V425.451L230.492 467.016L274.773 437.793Z" fill="url(#paint10_linear_75_268)"/>
<g style="mix-blend-mode:color">
<path d="M252.38 512H184.857C177.719 512 170.671 510.805 164.005 508.506C169.045 506.759 173.864 504.39 178.351 501.429L228.738 468.179L259.448 488.448C270.079 495.465 265.11 512 252.38 512Z" fill="#26DE81"/>
<path d="M252.38 512H245.092C232.573 512 220.325 508.326 209.884 501.429L194.123 491.028L228.738 468.179L259.448 488.448C270.08 495.465 265.11 512 252.38 512Z" fill="#26DE81"/>
<path d="M178.354 501.429L274.773 437.792C301.584 420.097 301.584 380.759 274.773 363.064L140.554 274.479C127.293 265.727 127.293 246.271 140.554 237.519L274.773 148.934C301.584 131.239 301.584 91.901 274.773 74.2059L178.354 10.5713C167.906 3.67536 155.665 0 143.147 0H75.6198C62.8881 0 57.9227 16.5376 68.5482 23.551L177.768 95.6356C189.203 103.182 189.203 119.96 177.768 127.506L10.5025 237.902C-2.48325 246.473 -2.48325 265.527 10.5025 274.098L177.768 384.493C189.203 392.039 189.203 408.817 177.768 416.363L68.5482 488.448C57.9227 495.461 62.8881 511.999 75.6198 511.999H143.147C155.665 512 167.906 508.325 178.354 501.429Z" fill="#26DE81"/>
<path d="M214.538 437.792C241.348 420.097 241.348 380.759 214.538 363.064L80.3182 274.479C67.0574 265.727 67.0574 246.271 80.3182 237.519L214.538 148.934C241.348 131.239 241.348 91.901 214.538 74.2059L118.119 10.5713C107.671 3.67536 95.4292 0 82.9113 0H75.6198C62.8881 0 57.9227 16.5376 68.5482 23.551L177.768 95.6356C189.203 103.182 189.203 119.96 177.768 127.506L10.5025 237.902C-2.48325 246.473 -2.48325 265.527 10.5025 274.098L177.768 384.493C189.203 392.039 189.203 408.817 177.768 416.363L68.5482 488.448C57.9227 495.461 62.8881 511.999 75.6198 511.999H82.9113C95.4292 511.999 107.671 508.324 118.119 501.428L214.538 437.792Z" fill="#26DE81"/>
<path d="M274.773 74.207L216.353 35.6504L150.205 77.4436L177.768 95.6347C189.202 103.181 189.202 119.959 177.768 127.505L164.003 136.59L164.005 136.592H287.278C300.575 116.873 296.414 88.4918 274.773 74.207Z" fill="#26DE81"/>
<path d="M53.2224 74.2099L99.2623 43.8212L149.649 10.5713C154.137 7.60973 158.965 5.23043 164.005 3.49365C170.671 1.19467 177.719 0 184.857 0H252.38C265.11 0 270.08 16.5346 259.448 23.552L228.738 43.8212L164.005 86.5481L150.231 95.6336C138.797 103.183 138.797 119.959 150.231 127.508L164.005 136.594L99.2623 179.32L53.2224 148.932C26.4177 131.243 26.4177 91.899 53.2224 74.2099Z" fill="#26DE81"/>
<path d="M317.495 274.101L228.738 332.679L164.005 375.406L150.231 384.492C138.797 392.041 138.797 408.817 150.231 416.366L164.005 425.452L99.2623 468.179L53.2224 437.79C26.4177 420.101 26.4177 380.757 53.2224 363.068L99.2623 332.679L164.005 289.952L187.447 274.482C200.709 265.728 200.709 246.272 187.447 237.518L164.005 222.047L228.738 179.32L317.495 237.899C330.485 246.473 330.485 265.527 317.495 274.101Z" fill="#26DE81"/>
<path d="M113.458 74.2099L129.38 63.6988L194.123 20.9719L209.884 10.5713C220.325 3.67435 232.573 0 245.092 0H252.38C265.11 0 270.08 16.5346 259.448 23.552L228.738 43.8212L164.005 86.5481L150.231 95.6336C138.797 103.183 138.797 119.959 150.231 127.508L164.005 136.594L129.38 159.443L113.458 148.932C86.6531 131.243 86.6531 91.899 113.458 74.2099Z" fill="#26DE81"/>
<path d="M317.495 274.101L228.738 332.679L164.005 375.406L150.231 384.492C138.797 392.041 138.797 408.817 150.231 416.366L164.005 425.452L129.38 448.301L113.458 437.79C86.6528 420.101 86.6528 380.757 113.458 363.068L129.38 352.557L194.123 309.83L247.682 274.482C260.944 265.728 260.944 246.272 247.682 237.518L194.123 202.17L228.738 179.32L317.495 237.899C330.485 246.473 330.485 265.527 317.495 274.101Z" fill="#26DE81"/>
<path d="M317.495 237.899L228.738 179.32L164.005 222.047L187.447 237.518C200.709 246.272 200.709 265.728 187.447 274.482L164.005 289.952L228.738 332.679L317.495 274.101C330.485 265.527 330.485 246.473 317.495 237.899Z" fill="#26DE81"/>
<path d="M274.773 437.793C301.583 420.098 301.583 380.761 274.773 363.065L228.738 332.68L164.787 375.926L165.759 376.567L167.519 375.407V377.729L177.768 384.493C189.202 392.04 189.202 408.817 177.768 416.364L167.519 423.128V425.451L230.492 467.016L274.773 437.793Z" fill="#26DE81"/>
</g>
<defs>
<linearGradient id="paint0_linear_75_268" x1="187.618" y1="474.167" x2="243.301" y2="529.85" gradientUnits="userSpaceOnUse">
<stop stop-color="#D8ECFE"/>
<stop offset="0.1216" stop-color="#D4EAFE"/>
<stop offset="0.259" stop-color="#C6E4FE"/>
<stop offset="0.4043" stop-color="#AFDAFE"/>
<stop offset="0.555" stop-color="#8FCDFD"/>
<stop offset="0.7099" stop-color="#67BCFD"/>
<stop offset="0.8659" stop-color="#36A8FD"/>
<stop offset="1" stop-color="#0593FC"/>
</linearGradient>
<linearGradient id="paint1_linear_75_268" x1="323.398" y1="490.089" x2="171.374" y2="490.089" gradientUnits="userSpaceOnUse">
<stop stop-color="#D8ECFE"/>
<stop offset="0.1216" stop-color="#D4EAFE"/>
<stop offset="0.259" stop-color="#C6E4FE"/>
<stop offset="0.4043" stop-color="#AFDAFE"/>
<stop offset="0.555" stop-color="#8FCDFD"/>
<stop offset="0.7099" stop-color="#67BCFD"/>
<stop offset="0.8659" stop-color="#36A8FD"/>
<stop offset="1" stop-color="#0593FC"/>
</linearGradient>
<linearGradient id="paint2_linear_75_268" x1="-60.3493" y1="59.5908" x2="308.156" y2="428.097" gradientUnits="userSpaceOnUse">
<stop stop-color="#80D261"/>
<stop offset="0.1607" stop-color="#7CCF63"/>
<stop offset="0.3424" stop-color="#6EC469"/>
<stop offset="0.5343" stop-color="#57B373"/>
<stop offset="0.7334" stop-color="#389B80"/>
<stop offset="0.936" stop-color="#107C91"/>
<stop offset="1" stop-color="#017297"/>
</linearGradient>
<linearGradient id="paint3_linear_75_268" x1="425.908" y1="256" x2="-74.0488" y2="256" gradientUnits="userSpaceOnUse">
<stop stop-color="#80D261"/>
<stop offset="0.1607" stop-color="#7CCF63"/>
<stop offset="0.3424" stop-color="#6EC469"/>
<stop offset="0.5343" stop-color="#57B373"/>
<stop offset="0.7334" stop-color="#389B80"/>
<stop offset="0.936" stop-color="#107C91"/>
<stop offset="1" stop-color="#017297"/>
</linearGradient>
<linearGradient id="paint4_linear_75_268" x1="217.503" y1="93.8256" x2="192.74" y2="41.6217" gradientUnits="userSpaceOnUse">
<stop stop-color="#026841" stop-opacity="0"/>
<stop offset="1" stop-color="#3E5959"/>
</linearGradient>
<linearGradient id="paint5_linear_75_268" x1="93.6162" y1="13.2478" x2="193.514" y2="113.147" gradientUnits="userSpaceOnUse">
<stop stop-color="#D8ECFE"/>
<stop offset="0.1216" stop-color="#D4EAFE"/>
<stop offset="0.259" stop-color="#C6E4FE"/>
<stop offset="0.4043" stop-color="#AFDAFE"/>
<stop offset="0.555" stop-color="#8FCDFD"/>
<stop offset="0.7099" stop-color="#67BCFD"/>
<stop offset="0.8659" stop-color="#36A8FD"/>
<stop offset="1" stop-color="#0593FC"/>
</linearGradient>
<linearGradient id="paint6_linear_75_268" x1="105.243" y1="258.07" x2="223.287" y2="376.114" gradientUnits="userSpaceOnUse">
<stop stop-color="#D8ECFE"/>
<stop offset="0.1216" stop-color="#D4EAFE"/>
<stop offset="0.259" stop-color="#C6E4FE"/>
<stop offset="0.4043" stop-color="#AFDAFE"/>
<stop offset="0.555" stop-color="#8FCDFD"/>
<stop offset="0.7099" stop-color="#67BCFD"/>
<stop offset="0.8659" stop-color="#36A8FD"/>
<stop offset="1" stop-color="#0593FC"/>
</linearGradient>
<linearGradient id="paint7_linear_75_268" x1="405.804" y1="79.7214" x2="38.3735" y2="79.7214" gradientUnits="userSpaceOnUse">
<stop stop-color="#D8ECFE"/>
<stop offset="0.1216" stop-color="#D4EAFE"/>
<stop offset="0.259" stop-color="#C6E4FE"/>
<stop offset="0.4043" stop-color="#AFDAFE"/>
<stop offset="0.555" stop-color="#8FCDFD"/>
<stop offset="0.7099" stop-color="#67BCFD"/>
<stop offset="0.8659" stop-color="#36A8FD"/>
<stop offset="1" stop-color="#0593FC"/>
</linearGradient>
<linearGradient id="paint8_linear_75_268" x1="518.501" y1="313.811" x2="18.5418" y2="313.811" gradientUnits="userSpaceOnUse">
<stop stop-color="#D8ECFE"/>
<stop offset="0.1216" stop-color="#D4EAFE"/>
<stop offset="0.259" stop-color="#C6E4FE"/>
<stop offset="0.4043" stop-color="#AFDAFE"/>
<stop offset="0.555" stop-color="#8FCDFD"/>
<stop offset="0.7099" stop-color="#67BCFD"/>
<stop offset="0.8659" stop-color="#36A8FD"/>
<stop offset="1" stop-color="#0593FC"/>
</linearGradient>
<linearGradient id="paint9_linear_75_268" x1="240.051" y1="250.924" x2="217.965" y2="169.271" gradientUnits="userSpaceOnUse">
<stop stop-color="#7BACDF" stop-opacity="0"/>
<stop offset="1" stop-color="#024C67"/>
</linearGradient>
<linearGradient id="paint10_linear_75_268" x1="228.105" y1="398.485" x2="208.69" y2="326.707" gradientUnits="userSpaceOnUse">
<stop stop-color="#026841" stop-opacity="0"/>
<stop offset="1" stop-color="#3E5959"/>
</linearGradient>
</defs>
</svg>
